<?xml version="1.0" ?><!-- Generator: Adobe Illustrator 17.1.0, SVG Export Plug-In . SVG Version: 6.00 Build 0)  --><!DOCTYPE svg  PUBLIC '-//W3C//DTD SVG 1.1//EN'  'http://www.w3.org/Graphics/SVG/1.1/DTD/svg11.dtd' [
	<!ENTITY stroke_color "#666666">
	<!ENTITY fill_color "#ffffff">
]><svg enable-background="new 0 0 55 55" id="Layer_1" version="1.1" viewBox="0 0 55 55" x="0px" xml:space="preserve" xmlns="http://www.w3.org/2000/svg" xmlns:xlink="http://www.w3.org/1999/xlink" y="0px">
<path d="M12.4,28.9c-0.5,10.8,7.5,20.7,16,21.8c0.7,0.1,2.5-0.1,2.5-0.1  l3.4,3.1c0.7,0.5,1.7-0.7,2.2-1.4l1.3-1.9c0.4-0.5,0.9-1.8,0.5-2.2c-0.9-1-2.4-0.7-3.6-1.9c-7.5-7.6-7-13.9-6.3-19.6  c1.5-11.7,11.2-17.1,14-20.3C46.1,2.2,44,1.1,44,1.1C32,0,13.2,12,12.4,28.9z" fill="&fill_color;" stroke="&stroke_color;" stroke-miterlimit="10"/>
</svg>